<?xml version="1.0" encoding="UTF-8"?>
<svg width="222px" height="33px" viewBox="0 0 222 33" version="1.1" xmlns="http://www.w3.org/2000/svg" xmlns:xlink="http://www.w3.org/1999/xlink">
    <!-- Generator: Sketch 53 (72520) - https://sketchapp.com -->
    <title>Group 18</title>
    <desc>Created with Sketch.</desc>
    <defs>
        <polygon id="path-1" points="0 32.4132231 221.560281 32.4132231 221.560281 0 0 0"></polygon>
    </defs>
    <g id="Page-1" stroke="none" stroke-width="1" fill="none" fill-rule="evenodd">
        <g id="NPS-Module" transform="translate(-130.000000, -16.000000)">
            <g id="Group-18" transform="translate(130.000000, 16.000000)">
                <path d="M66.1520248,21.9006364 C65.6370826,22.4724545 64.8842397,22.9335785 63.8928843,23.2827851 C62.9015289,23.6326033 61.8147686,23.8069008 60.6326033,23.8069008 C58.8150165,23.8069008 57.3625372,23.2509835 56.2763884,22.1391488 C55.1896281,21.0267025 54.6080248,19.4794298 54.5321901,17.496719 L54.522405,16.295595 C54.522405,14.9293471 54.7633636,13.7361736 55.2465041,12.7160744 C55.7296446,11.6959752 56.420719,10.9113306 57.3203388,10.3615289 C58.2193471,9.81172727 59.2596281,9.53713223 60.4417934,9.53713223 C62.1707025,9.53713223 63.5130992,9.93281818 64.469595,10.7235785 C65.4260909,11.5149504 65.9832314,12.695281 66.1422397,14.2651818 L62.9204876,14.2651818 C62.806124,13.4897107 62.558438,12.9368512 62.1768182,12.6066033 C61.7951983,12.2763554 61.2551818,12.1106198 60.556157,12.1106198 C59.7176942,12.1106198 59.0688182,12.4665537 58.6113636,13.1784215 C58.1539091,13.8902893 57.922124,14.906719 57.9160083,16.2289339 L57.9160083,17.0680083 C57.9160083,18.4532149 58.1520744,19.4934959 58.6260413,20.1894628 C59.0993967,20.8854298 59.8449008,21.2334132 60.8613306,21.2334132 C61.731595,21.2334132 62.3804711,21.0395455 62.806124,20.6518099 L62.806124,18.4978595 L60.4803223,18.4978595 L60.4803223,16.2001901 L66.1520248,16.2001901 L66.1520248,21.9006364 Z" id="Fill-1" fill="#FFFFFF"></path>
                <mask id="mask-2" fill="white">
                    <use xlink:href="#path-1"></use>
                </mask>
                <g id="Clip-4"></g>
                <polygon id="Fill-3" fill="#FFFFFF" mask="url(#mask-2)" points="68.3252397 23.6163967 71.6613554 23.6163967 71.6613554 9.73680992 68.3252397 9.73680992"></polygon>
                <path d="M78.2583025,18.4402496 L81.2421537,18.4402496 L79.7456413,13.6265802 L78.2583025,18.4402496 Z M82.0426992,21.0235223 L77.4571455,21.0235223 L76.6566,23.6165802 L73.0819719,23.6165802 L78.1726826,9.73699339 L81.3179884,9.73699339 L86.4466165,23.6165802 L82.8530298,23.6165802 L82.0426992,21.0235223 Z" id="Fill-5" fill="#FFFFFF" mask="url(#mask-2)"></path>
                <polygon id="Fill-6" fill="#FFFFFF" mask="url(#mask-2)" points="99.0486942 23.616519 95.7217521 23.616519 90.8028926 14.979924 90.8028926 23.616519 87.4569917 23.616519 87.4569917 9.73693223 90.8028926 9.73693223 95.7119669 18.3735273 95.7119669 9.73693223 99.0486942 9.73693223"></polygon>
                <polygon id="Fill-7" fill="#FFFFFF" mask="url(#mask-2)" points="111.78385 12.3203884 107.617833 12.3203884 107.617833 23.6167025 104.272544 23.6167025 104.272544 12.3203884 100.182974 12.3203884 100.182974 9.7371157 111.78385 9.7371157"></polygon>
                <path d="M120.830502,16.1334678 L122.946536,16.1334678 C123.582569,16.1334678 124.060205,15.9665091 124.381279,15.6319802 C124.702354,15.2974512 124.862585,14.8308231 124.862585,14.2320959 C124.862585,13.6333686 124.700519,13.1630711 124.376387,12.8224264 C124.052866,12.4817818 123.575841,12.3111537 122.946536,12.3111537 L120.830502,12.3111537 L120.830502,16.1334678 Z M122.641362,18.7069554 L120.830502,18.7069554 L120.830502,23.6166413 L117.484602,23.6166413 L117.484602,9.73705455 L122.946536,9.73705455 C124.592271,9.73705455 125.879626,10.102162 126.807379,10.8323769 C127.735131,11.5625917 128.199312,12.5936992 128.199312,13.9269223 C128.199312,14.8919802 128.00361,15.691914 127.612817,16.326724 C127.222023,16.9615339 126.610453,17.4758645 125.778106,17.8691041 L128.675726,23.4735339 L128.675726,23.6166413 L125.091312,23.6166413 L122.641362,18.7069554 Z" id="Fill-8" fill="#FFFFFF" mask="url(#mask-2)"></path>
                <path d="M138.57026,16.381276 C138.57026,15.0021851 138.340309,13.9551769 137.879185,13.2402512 C137.418673,12.5253256 136.7594,12.1681686 135.901367,12.1681686 C134.22383,12.1681686 133.337053,13.4261686 133.241648,15.9427802 L133.231863,16.9628793 C133.231863,18.3230116 133.457532,19.3681851 133.908871,20.0990116 C134.36021,20.829838 135.030491,21.195557 135.920326,21.195557 C136.765516,21.195557 137.416838,20.8365653 137.874293,20.1179702 C138.331747,19.3999868 138.564144,18.3676562 138.57026,17.0197554 L138.57026,16.381276 Z M141.973036,16.9628793 C141.973036,18.3162843 141.722293,19.5143504 141.220193,20.5564661 C140.718094,21.5985818 140.005003,22.400962 139.080309,22.9636066 C138.155615,23.5262512 137.102491,23.806962 135.920326,23.806962 C134.73816,23.806962 133.689929,23.5354248 132.774408,22.9923504 C131.859499,22.4486645 131.145797,21.6719702 130.634524,20.6616562 C130.12264,19.6507306 129.85416,18.4911934 129.829086,17.1824331 L129.829086,16.4002347 C129.829086,15.040714 130.078607,13.8408132 130.577648,12.8017554 C131.076078,11.7626975 131.791003,10.9603174 132.721813,10.3946149 C133.652623,9.82952397 134.712474,9.54636694 135.901367,9.54636694 C137.076805,9.54636694 138.125036,9.82646612 139.046673,10.3854413 C139.968309,10.9444165 140.685069,11.740681 141.196342,12.7736231 C141.708226,13.8059537 141.966921,14.9899537 141.973036,16.3244 L141.973036,16.9628793 Z" id="Fill-9" fill="#FFFFFF" mask="url(#mask-2)"></path>
                <path d="M147.044727,17.7158446 L147.044727,21.0427868 L149.237207,21.0427868 C149.840826,21.0427868 150.305008,20.9045719 150.62914,20.6281421 C150.953273,20.3517124 151.115339,19.9621421 151.115339,19.4606545 C151.115339,18.3035636 150.539851,17.7225719 149.389488,17.7158446 L147.044727,17.7158446 Z M147.044727,15.5233653 L148.789537,15.5233653 C149.519752,15.5172496 150.04081,15.3833157 150.352711,15.1215636 C150.664,14.8610347 150.819339,14.4751339 150.819339,13.9650843 C150.819339,13.3785884 150.651157,12.956605 150.314182,12.6979107 C149.977207,12.4404397 149.434132,12.3107868 148.684347,12.3107868 L147.044727,12.3107868 L147.044727,15.5233653 Z M143.698826,23.6162744 L143.698826,9.73729917 L148.684347,9.73729917 C150.470132,9.73729917 151.82843,10.0644893 152.75924,10.7188694 C153.690661,11.3738612 154.156066,12.3236298 154.156066,13.5693983 C154.156066,14.2873818 153.990331,14.9007868 153.660083,15.4090017 C153.329835,15.9178281 152.843636,16.2921091 152.202099,16.5336793 C152.926198,16.7244893 153.482116,17.0804231 153.869851,17.601481 C154.257587,18.1225388 154.451455,18.7585719 154.451455,19.508357 C154.451455,20.8678777 154.020909,21.8898116 153.159818,22.5729355 C152.298727,23.2560595 151.022992,23.604043 149.332612,23.6162744 L143.698826,23.6162744 Z" id="Fill-10" fill="#FFFFFF" mask="url(#mask-2)"></path>
                <path d="M164.641683,16.381276 C164.641683,15.0021851 164.411732,13.9551769 163.950608,13.2402512 C163.490096,12.5253256 162.830823,12.1681686 161.97279,12.1681686 C160.295253,12.1681686 159.408476,13.4261686 159.313071,15.9427802 L159.303286,16.9628793 C159.303286,18.3230116 159.528955,19.3681851 159.980294,20.0990116 C160.431633,20.829838 161.101914,21.195557 161.991749,21.195557 C162.836939,21.195557 163.488261,20.8365653 163.945716,20.1179702 C164.40317,19.3999868 164.635567,18.3676562 164.641683,17.0197554 L164.641683,16.381276 Z M168.04446,16.9628793 C168.04446,18.3162843 167.793716,19.5143504 167.291617,20.5564661 C166.789517,21.5985818 166.076426,22.400962 165.151732,22.9636066 C164.227038,23.5262512 163.173914,23.806962 161.991749,23.806962 C160.809583,23.806962 159.761352,23.5354248 158.845831,22.9923504 C157.930922,22.4486645 157.21722,21.6719702 156.705947,20.6616562 C156.194063,19.6507306 155.925583,18.4911934 155.900509,17.1824331 L155.900509,16.4002347 C155.900509,15.040714 156.15003,13.8408132 156.649071,12.8017554 C157.147501,11.7626975 157.862426,10.9603174 158.793236,10.3946149 C159.724046,9.82952397 160.783898,9.54636694 161.97279,9.54636694 C163.148228,9.54636694 164.19646,9.82646612 165.118096,10.3854413 C166.039732,10.9444165 166.756493,11.740681 167.267765,12.7736231 C167.77965,13.8059537 168.038344,14.9899537 168.04446,16.3244 L168.04446,16.9628793 Z" id="Fill-11" fill="#FFFFFF" mask="url(#mask-2)"></path>
                <polygon id="Fill-12" fill="#FFFFFF" mask="url(#mask-2)" points="179.855716 12.3203884 175.689699 12.3203884 175.689699 23.6167025 172.34441 23.6167025 172.34441 12.3203884 168.25484 12.3203884 168.25484 9.7371157 179.855716 9.7371157"></polygon>
                <polygon id="Fill-13" fill="#FFFFFF" mask="url(#mask-2)" points="188.902063 21.0427256 194.726046 21.0427256 194.726046 23.6162132 185.556162 23.6162132 185.556162 9.73723802 188.902063 9.73723802"></polygon>
                <polygon id="Fill-14" fill="#FFFFFF" mask="url(#mask-2)" points="205.078769 12.3203884 200.912752 12.3203884 200.912752 23.6167025 197.567463 23.6167025 197.567463 12.3203884 193.477893 12.3203884 193.477893 9.7371157 205.078769 9.7371157"></polygon>
                <path d="M209.835501,12.3203884 L209.835501,21.0426033 L210.998707,21.0426033 C211.958261,21.0426033 212.695203,20.7013471 213.210145,20.0176116 C213.724476,19.3350992 213.981947,18.3198926 213.981947,16.9719917 L213.981947,16.3720413 C213.981947,15.0308678 213.724476,14.0205537 213.210145,13.3404876 C212.695203,12.6604215 211.945418,12.3203884 210.960179,12.3203884 L209.835501,12.3203884 Z M206.4896,23.6167025 L206.4896,9.7371157 L210.960179,9.7371157 C212.186988,9.7371157 213.289038,10.0153802 214.268162,10.5712975 C215.246674,11.1272149 216.011137,11.9124711 216.560939,12.925843 C217.11074,13.9392149 217.388393,15.0755124 217.394509,16.3335124 L217.394509,16.9719917 C217.394509,18.2434463 217.12603,19.3828017 216.589071,20.3894463 C216.052112,21.397314 215.296212,22.1850165 214.320145,22.7537769 C213.344691,23.3225372 212.256707,23.6099752 211.055583,23.6167025 L206.4896,23.6167025 Z" id="Fill-15" fill="#FFFFFF" mask="url(#mask-2)"></path>
                <path d="M219.787217,20.4992231 C220.296043,20.4992231 220.718026,20.650281 221.055002,20.9523967 C221.391977,21.2539008 221.560159,21.6404132 221.560159,22.1100992 C221.560159,22.5803967 221.391977,22.9669091 221.055002,23.2684132 C220.718026,23.5705289 220.296043,23.7215868 219.787217,23.7215868 C219.272886,23.7215868 218.848456,23.5686942 218.514539,23.2641322 C218.181233,22.9583471 218.014274,22.574281 218.014274,22.1100992 C218.014274,21.6465289 218.181233,21.2618512 218.514539,20.9572893 C218.848456,20.6521157 219.272886,20.4992231 219.787217,20.4992231" id="Fill-16" fill="#FFFFFF" mask="url(#mask-2)"></path>
                <path d="M37.1528926,16.5123967 C34.788562,16.5123967 32.8719008,14.5957355 32.8719008,12.231405 C32.8719008,9.86707438 34.788562,7.95041322 37.1528926,7.95041322 C39.5172231,7.95041322 41.4338843,9.86707438 41.4338843,12.231405 C41.4338843,14.5957355 39.5172231,16.5123967 37.1528926,16.5123967 L37.1528926,16.5123967 Z M32.107438,25.0743802 L30.4256198,25.0743802 L30.4256198,18.9586777 L32.107438,18.9586777 C33.7959835,18.9586777 35.1652893,20.3279835 35.1652893,22.0165289 C35.1652893,23.7050744 33.7959835,25.0743802 32.107438,25.0743802 L32.107438,25.0743802 Z M12.5371901,22.0165289 C12.5371901,20.3279835 13.9064959,18.9586777 15.5950413,18.9586777 L16.9710744,18.9586777 L16.9710744,25.0743802 L15.5950413,25.0743802 C13.9064959,25.0743802 12.5371901,23.7050744 12.5371901,22.0165289 L12.5371901,22.0165289 Z M5.96280992,12.231405 C5.96280992,9.86707438 7.87947107,7.95041322 10.2438017,7.95041322 C12.6081322,7.95041322 14.5247934,9.86707438 14.5247934,12.231405 C14.5247934,14.5957355 12.6081322,16.5123967 10.2438017,16.5123967 C7.87947107,16.5123967 5.96280992,14.5957355 5.96280992,12.231405 L5.96280992,12.231405 Z M18.1942149,25.0743802 L23.0867769,25.0743802 L23.0867769,18.9586777 L18.1942149,18.9586777 L18.1942149,25.0743802 Z M24.3099174,25.0743802 L29.2024793,25.0743802 L29.2024793,18.9586777 L24.3099174,18.9586777 L24.3099174,25.0743802 Z M41.0944628,0 L6.60801653,0 C2.95816529,0 0,2.95816529 0,6.60801653 L0,25.8052066 C0,29.4550579 2.95816529,32.4132231 6.60801653,32.4132231 L41.0944628,32.4132231 C44.744314,32.4132231 47.7024793,29.4550579 47.7024793,25.8052066 L47.7024793,6.60801653 C47.7024793,2.95816529 44.744314,0 41.0944628,0 L41.0944628,0 Z" id="Fill-17" fill="#FFFFFF" mask="url(#mask-2)"></path>
            </g>
        </g>
    </g>
</svg>