<?xml version="1.0" encoding="UTF-8"?>
<svg width="24px" height="22px" viewBox="0 0 24 22" version="1.1" xmlns="http://www.w3.org/2000/svg" xmlns:xlink="http://www.w3.org/1999/xlink">
    <!-- Generator: Sketch 53 (72520) - https://sketchapp.com -->
    <title>Fill 1</title>
    <desc>Created with Sketch.</desc>
    <g id="Page-1" stroke="none" stroke-width="1" fill="none" fill-rule="evenodd">
        <g id="NPS-Module" transform="translate(-622.000000, -123.000000)" fill="#E0E0E0">
            <g id="Group-3" transform="translate(370.000000, 123.000000)">
                <path d="M275.134982,7.76853712 L267.257303,7.76853712 L264.822887,0.573884148 C264.706963,0.231613926 264.374761,5.68434189e-14 263.999996,5.68434189e-14 C263.625231,5.68434189e-14 263.293029,0.231613926 263.177451,0.573884148 L260.743035,7.76853712 L252.865356,7.76853712 C252.490591,7.76853712 252.15839,8.00015105 252.042465,8.34275357 C251.926541,8.68469149 252.053539,9.05985953 252.356673,9.27120308 L258.730101,13.7177252 L256.295685,20.9123782 C256.179761,21.2546484 256.306758,21.6294842 256.609892,21.84116 C256.913027,22.0528359 257.32378,22.0528359 257.626914,21.84116 L263.999996,17.3949702 L270.373424,21.84116 C270.524991,21.9468318 270.703204,22 270.881762,22 C271.06032,22 271.238533,21.9468318 271.3901,21.84116 C271.69358,21.6294842 271.820232,21.2546484 271.704307,20.9123782 L269.270238,13.7177252 L275.64332,9.27120308 C275.9468,9.05985953 276.073452,8.68469149 275.957527,8.34275357 C275.841949,8.00015105 275.509747,7.76853712 275.134982,7.76853712" id="Fill-1"></path>
            </g>
        </g>
    </g>
</svg>