<?xml version="1.0" encoding="UTF-8"?>
<svg width="24px" height="22px" viewBox="0 0 24 22" version="1.1" xmlns="http://www.w3.org/2000/svg" xmlns:xlink="http://www.w3.org/1999/xlink">
    <!-- Generator: Sketch 53 (72520) - https://sketchapp.com -->
    <title>Fill 1</title>
    <desc>Created with Sketch.</desc>
    <g id="Page-1" stroke="none" stroke-width="1" fill="none" fill-rule="evenodd">
        <g id="NPS-Module-Redines" transform="translate(-538.000000, -121.000000)" fill="#CF2AFF">
            <g id="Group-3" transform="translate(370.000000, 121.000000)">
                <path d="M191.134982,7.76853712 L183.257303,7.76853712 L180.822887,0.573884148 C180.706963,0.231613926 180.374761,5.68434189e-14 179.999996,5.68434189e-14 C179.625231,5.68434189e-14 179.293029,0.231613926 179.177451,0.573884148 L176.743035,7.76853712 L168.865356,7.76853712 C168.490591,7.76853712 168.15839,8.00015105 168.042465,8.34275357 C167.926541,8.68469149 168.053539,9.05985953 168.356673,9.27120308 L174.730101,13.7177252 L172.295685,20.9123782 C172.179761,21.2546484 172.306758,21.6294842 172.609892,21.84116 C172.913027,22.0528359 173.32378,22.0528359 173.626914,21.84116 L179.999996,17.3949702 L186.373424,21.84116 C186.524991,21.9468318 186.703204,22 186.881762,22 C187.06032,22 187.238533,21.9468318 187.3901,21.84116 C187.69358,21.6294842 187.820232,21.2546484 187.704307,20.9123782 L185.270238,13.7177252 L191.64332,9.27120308 C191.9468,9.05985953 192.073452,8.68469149 191.957527,8.34275357 C191.841949,8.00015105 191.509747,7.76853712 191.134982,7.76853712" id="Fill-1"></path>
            </g>
        </g>
    </g>
</svg>